HIERARCHY
ROOT hip
{
  OFFSET 0 0 0
  CHANNELS 6 Xposition Yposition Zposition Zrotation Yrotation Xrotation
  JOINT abdomen
  {
    OFFSET 0 20.6881 -0.73152
    CHANNELS 3 Zrotation Xrotation Yrotation
    JOINT chest
    {
      OFFSET 0 11.7043 -0.48768
      CHANNELS 3 Zrotation Xrotation Yrotation
      JOINT neck
      {
        OFFSET 0 22.1894 -2.19456
        CHANNELS 3 Zrotation Xrotation Yrotation
        JOINT head
        {
          OFFSET -0.24384 7.07133 1.2192
          CHANNELS 3 Zrotation Xrotation Yrotation
          JOINT leftEye
          {
            OFFSET 4.14528 8.04674 8.04672
            CHANNELS 3 Zrotation Xrotation Yrotation
            End Site
            {
              OFFSET 1 0 0
            }
          }
          JOINT rightEye
          {
            OFFSET -3.6576 8.04674 8.04672
            CHANNELS 3 Zrotation Xrotation Yrotation
            End Site
            {
              OFFSET 1 0 0
            }
          }
        }
      }
      JOINT rCollar
      {
        OFFSET -2.68224 19.2634 -4.8768
        CHANNELS 3 Zrotation Xrotation Yrotation
        JOINT rShldr
        {
          OFFSET -8.77824 -1.95073 1.46304
          CHANNELS 3 Zrotation Xrotation Yrotation
          JOINT rForeArm
          {
            OFFSET -28.1742 -1.7115 0.48768
            CHANNELS 3 Zrotation Xrotation Yrotation
            JOINT rHand
            {
              OFFSET -22.5879 0.773209 7.07136
              CHANNELS 3 Zrotation Xrotation Yrotation
              JOINT rThumb1
              {
                OFFSET -1.2192 -0.487915 3.41376
                CHANNELS 3 Zrotation Xrotation Yrotation
                JOINT rThumb2
                {
                  OFFSET -3.37035 -0.52449 3.41376
                  CHANNELS 3 Zrotation Xrotation Yrotation
                  End Site
                  {
                    OFFSET -1.78271 -1.18214 1.43049
                  }
                }
              }
              JOINT rIndex1
              {
                OFFSET -7.75947 0.938293 5.60832
                CHANNELS 3 Zrotation Xrotation Yrotation
                JOINT rIndex2
                {
                  OFFSET -2.54057 -0.884171 1.56538
                  CHANNELS 3 Zrotation Xrotation Yrotation
                  End Site
                  {
                    OFFSET -1.62519 -0.234802 1.16502
                  }
                }
              }
              JOINT rMid1
              {
                OFFSET -8.24714 1.18213 3.41376
                CHANNELS 3 Zrotation Xrotation Yrotation
                JOINT rMid2
                {
                  OFFSET -3.10165 -0.590103 1.0647
                  CHANNELS 3 Zrotation Xrotation Yrotation
                  End Site
                  {
                    OFFSET -2.48547 -0.328903 0.83742
                  }
                }
              }
              JOINT rRing1
              {
                OFFSET -8.82822 0.546677 1.51678
                CHANNELS 3 Zrotation Xrotation Yrotation
                JOINT rRing2
                {
                  OFFSET -2.60934 -0.819778 -0.0198488
                  CHANNELS 3 Zrotation Xrotation Yrotation
                  End Site
                  {
                    OFFSET -2.33842 -0.294052 0.168128
                  }
                }
              }
              JOINT rPinky1
              {
                OFFSET -8.27202 -0.0477905 -0.4584
                CHANNELS 3 Zrotation Xrotation Yrotation
                JOINT rPinky2
                {
                  OFFSET -1.82734 -0.647385 -0.700984
                  CHANNELS 3 Zrotation Xrotation Yrotation
                  End Site
                  {
                    OFFSET -1.69225 -0.51767 -0.607171
                  }
                }
              }
            }
          }
        }
      }
      JOINT lCollar
      {
        OFFSET 2.68224 19.2634 -4.8768
        CHANNELS 3 Zrotation Xrotation Yrotation
        JOINT lShldr
        {
          OFFSET 8.77824 -1.95073 1.46304
          CHANNELS 3 Zrotation Xrotation Yrotation
          JOINT lForeArm
          {
            OFFSET 28.1742 -1.7115 0.48768
            CHANNELS 3 Zrotation Xrotation Yrotation
            JOINT lHand
            {
              OFFSET 22.5879 0.773209 7.07136
              CHANNELS 3 Zrotation Xrotation Yrotation
              JOINT lThumb1
              {
                OFFSET 1.2192 -0.487915 3.41376
                CHANNELS 3 Zrotation Xrotation Yrotation
                JOINT lThumb2
                {
                  OFFSET 3.37035 -0.52449 3.41376
                  CHANNELS 3 Zrotation Xrotation Yrotation
                  End Site
                  {
                    OFFSET 1.78271 -1.18214 1.43049
                  }
                }
              }
              JOINT lIndex1
              {
                OFFSET 7.75947 0.938293 5.60832
                CHANNELS 3 Zrotation Xrotation Yrotation
                JOINT lIndex2
                {
                  OFFSET 2.54057 -0.884171 1.56538
                  CHANNELS 3 Zrotation Xrotation Yrotation
                  End Site
                  {
                    OFFSET 1.62519 -0.234802 1.16502
                  }
                }
              }
              JOINT lMid1
              {
                OFFSET 8.24714 1.18213 3.41376
                CHANNELS 3 Zrotation Xrotation Yrotation
                JOINT lMid2
                {
                  OFFSET 3.10165 -0.590103 1.0647
                  CHANNELS 3 Zrotation Xrotation Yrotation
                  End Site
                  {
                    OFFSET 2.48547 -0.328903 0.83742
                  }
                }
              }
              JOINT lRing1
              {
                OFFSET 8.82822 0.546677 1.51678
                CHANNELS 3 Zrotation Xrotation Yrotation
                JOINT lRing2
                {
                  OFFSET 2.60934 -0.819778 -0.0198488
                  CHANNELS 3 Zrotation Xrotation Yrotation
                  End Site
                  {
                    OFFSET 2.33842 -0.294052 0.168128
                  }
                }
              }
              JOINT lPinky1
              {
                OFFSET 8.27202 -0.0477905 -0.4584
                CHANNELS 3 Zrotation Xrotation Yrotation
                JOINT lPinky2
                {
                  OFFSET 1.82734 -0.647385 -0.700984
                  CHANNELS 3 Zrotation Xrotation Yrotation
                  End Site
                  {
                    OFFSET 1.69225 -0.51767 -0.607171
                  }
                }
              }
            }
          }
        }
      }
    }
  }
  JOINT rButtock
  {
    OFFSET -8.77824 4.35084 1.2192
    CHANNELS 3 Zrotation Xrotation Yrotation
    JOINT rThigh
    {
      OFFSET 0 -1.70687 -2.19456
      CHANNELS 3 Zrotation Xrotation Yrotation
      JOINT rShin
      {
        OFFSET 0 -36.8199 0.73152
        CHANNELS 3 Zrotation Xrotation Yrotation
        JOINT rFoot
        {
          OFFSET 0.73152 -45.1104 -5.12064
          CHANNELS 3 Zrotation Xrotation Yrotation
          End Site
          {
            OFFSET -1.1221 -3.69964 12.103
          }
        }
      }
    }
  }
  JOINT lButtock
  {
    OFFSET 8.77824 4.35084 1.2192
    CHANNELS 3 Zrotation Xrotation Yrotation
    JOINT lThigh
    {
      OFFSET 0 -1.70687 -2.19456
      CHANNELS 3 Zrotation Xrotation Yrotation
      JOINT lShin
      {
        OFFSET 0 -36.8199 0.73152
        CHANNELS 3 Zrotation Xrotation Yrotation
        JOINT lFoot
        {
          OFFSET -0.73152 -45.1104 -5.12064
          CHANNELS 3 Zrotation Xrotation Yrotation
          End Site
          {
            OFFSET 1.1221 -3.69964 12.103
          }
        }
      }
    }
  }
}
MOTION
Frames:	9
Frame Time:	0.00833333
5.42445 82.4855 55.5435 0.0 0.0 0.0 -4.35897 0.00629293 -0.117457 -1.2016 0.0324773 -0.207684 6.87959e-14 7.95139e-16 8.44835e-16 2.06366e-13 3.18055e-15 2.72863e-15 -0.0 0.0 0.0 -0.0 0.0 0.0 3.43416e-14 2.974e-16 6.95746e-16 7.2485e-13 6.13126e-15 1.39149e-14 1.24431e-11 -3.53558e-12 5.725e-14 1.42629e-10 4.84264e-12 2.29636e-12 3.36391e-10 2.83278e-12 5.09207e-12 5.80933e-10 4.88851e-12 8.81093e-12 3.36394e-10 2.83149e-12 5.09207e-12 7.73091 5.47488 0.417314 3.3639e-10 2.83308e-12 5.09843e-12 2.90554 0.965183 0.102902 3.36397e-10 2.83278e-12 5.10718e-12 10.2786 0.731801 0.0259123 3.36382e-10 2.83467e-12 5.12705e-12 2.22167 -0.733487 -0.20892 3.40426e-14 2.974e-16 2.48481e-16 7.22334e-13 5.98839e-15 1.19271e-14 1.24751e-11 3.93256e-12 8.5875e-14 1.42582e-10 -2.63432e-12 2.28682e-12 3.36375e-10 2.81496e-12 5.09207e-12 5.80912e-10 4.85989e-12 8.78549e-12 3.36372e-10 2.8128e-12 5.10479e-12 -7.73091 5.47488 -0.417314 3.36375e-10 2.81449e-12 5.08889e-12 -2.90554 0.965183 -0.102902 3.36371e-10 2.81489e-12 5.08968e-12 -10.2786 0.731801 -0.0259123 3.36386e-10 2.81877e-12 5.07298e-12 -2.22167 -0.733487 0.20892 -2.03217e-16 0.0 -3.88251e-19 -2.88872 -1.94435 0.0304248 -0.00796872 -2.07874 -0.0650583 -0.421737 4.00217 0.127039 2.03217e-16 0.0 3.88251e-19 -3.72534 -11.2507 0.483795 -0.0143134 14.7726 -0.388799 0.544786 -3.54243 0.0125138
3.32385 82.0677 53.0495 -8.8798 0.7061 10.8242 -2.19354 -3.78066 0.253607 -1.44979 -2.38686 -0.213264 -3.52084 4.0996 -3.61123 6.1788 -2.32801 -6.81137 -0.0 0.0 0.0 -0.0 0.0 0.0 4.98574e-14 1.16834e-14 -1.86124e-14 22.9323 1.54883 -1.77546 -3.01124 -1.19259 4.87686 0.114272 7.51254 1.02336 2.29257e-10 9.38178e-11 -2.45334e-10 3.90402e-10 1.67126e-10 -4.23e-10 2.29261e-10 9.38159e-11 -2.45336e-10 7.73091 5.47488 0.417314 2.29256e-10 9.38168e-11 -2.45327e-10 2.90554 0.965183 0.102902 2.29263e-10 9.38162e-11 -2.45322e-10 10.2786 0.731801 0.0259123 2.29248e-10 9.3818e-11 -2.45303e-10 2.22167 -0.733487 -0.20892 4.96216e-14 1.16837e-14 -1.90507e-14 -23.3983 -5.33707 2.34609 1.77344 -0.591911 -2.95858 -0.50215 15.8362 -1.93081 1.13165e-10 -1.57923e-10 -2.03984e-10 1.86987e-10 -2.77627e-10 -3.44188e-10 1.13162e-10 -1.57923e-10 -2.03973e-10 -7.73091 5.47488 -0.417314 1.13167e-10 -1.57923e-10 -2.03988e-10 -2.90554 0.965183 -0.102902 1.1316e-10 -1.57923e-10 -2.03985e-10 -10.2786 0.731801 -0.0259123 1.13175e-10 -1.57921e-10 -2.03999e-10 -2.22167 -0.733487 0.20892 -2.03217e-16 0.0 -3.88251e-19 -1.44907 -2.83696 6.98242 0.00775614 -1.86633 0.0507061 -0.888727 1.06199 -6.43354 2.03217e-16 0.0 3.88251e-19 -3.66455 -9.97242 -13.508 -0.00299413 14.0984 -0.193381 1.74392 -10.7035 15.495
3.34258 82.0774 53.0545 -8.7828 0.6795 10.8237 0.177546 -7.77106 0.642906 -1.71431 -4.94833 -0.222991 -6.69251 8.38033 -7.48691 12.1265 -4.6811 -14.0404 -0.0 0.0 0.0 -0.0 0.0 0.0 6.25622e-14 2.1698e-14 -3.7971e-14 47.2773 3.20355 -3.65851 -5.98067 -2.42796 10.049 -0.0664914 15.4258 2.16254 1.07349e-10 1.66609e-10 -4.47509e-10 1.75487e-10 2.96837e-10 -7.7129e-10 1.07354e-10 1.66607e-10 -4.47513e-10 7.73091 5.47488 0.417314 1.07347e-10 1.66607e-10 -4.47501e-10 2.90554 0.965183 0.102902 1.07355e-10 1.66606e-10 -4.475e-10 10.2786 0.731801 0.0259123 1.0734e-10 1.66608e-10 -4.47483e-10 2.22167 -0.733487 -0.20892 6.23936e-14 2.16987e-14 -3.84027e-14 -47.6554 -10.9965 4.90103 3.57955 -1.21134 -6.08338 0.323327 32.539 -4.53633 -7.55254e-11 -2.88175e-10 -3.97366e-10 -1.46938e-10 -5.07913e-10 -6.71913e-10 -7.5529e-11 -2.88173e-10 -3.97355e-10 -7.73091 5.47488 -0.417314 -7.55219e-11 -2.88174e-10 -3.97369e-10 -2.90554 0.965183 -0.102902 -7.55312e-11 -2.88175e-10 -3.97365e-10 -10.2786 0.731801 -0.0259123 -7.55167e-11 -2.88174e-10 -3.97376e-10 -2.22167 -0.733487 0.20892 -2.03217e-16 0.0 -3.88251e-19 0.327953 -3.69263 14.3365 0.0234529 -1.64107 0.172986 -2.10792 -1.97907 -13.3676 2.03217e-16 0.0 3.88251e-19 -2.90983 -8.10235 -28.1605 0.0139422 13.3802 0.0112758 7.12697 -16.2073 32.7416
3.36286 82.0795 53.0577 -8.6798 0.6503 10.8165 2.28679 -11.3529 1.01392 -1.94766 -7.22554 -0.22566 -8.99267 12.1013 -11.0546 16.9058 -6.58972 -20.5591 -0.0 0.0 0.0 -0.0 0.0 0.0 8.08892e-14 3.44553e-14 -5.72286e-14 69.0851 4.62862 -5.34191 -8.43108 -3.47425 14.6549 -0.51827 22.5076 3.29496 1.49887e-11 2.75788e-10 -7.46187e-10 9.34042e-12 4.91602e-10 -1.28662e-09 1.49948e-11 2.75785e-10 -7.46192e-10 7.73091 5.47488 0.417314 1.49863e-11 2.75784e-10 -7.46177e-10 2.90554 0.965183 0.102902 1.49947e-11 2.75783e-10 -7.4618e-10 10.2786 0.731801 0.0259123 1.49786e-11 2.75785e-10 -7.46165e-10 2.22167 -0.733487 -0.20892 8.07797e-14 3.44562e-14 -5.76491e-14 -68.843 -15.9017 7.28805 5.13769 -1.75681 -8.87947 2.96866 47.2392 -8.2229 -3.33254e-10 -4.794e-10 -6.22138e-10 -6.00864e-10 -8.42599e-10 -1.05014e-09 -3.33258e-10 -4.79396e-10 -6.22127e-10 -7.73091 5.47488 -0.417314 -3.33249e-10 -4.79399e-10 -6.2214e-10 -2.90554 0.965183 -0.102902 -3.3326e-10 -4.79399e-10 -6.22135e-10 -10.2786 0.731801 -0.0259123 -3.33246e-10 -4.794e-10 -6.22143e-10 -2.22167 -0.733487 0.20892 -2.03217e-16 0.0 -3.88251e-19 2.06218 -4.3779 20.9246 0.0366301 -1.44149 0.282158 -3.80869 -4.52098 -19.6143 2.03217e-16 0.0 3.88251e-19 -1.62408 -6.23009 -41.1444 0.0337888 12.7496 0.194009 14.6864 -17.9875 48.7284
3.36855 82.0788 53.0597 -8.6393 0.5984 10.8083 3.64115 -13.9149 1.32282 -2.1006 -8.79216 -0.20961 -10.2276 14.6103 -13.6418 19.901 -7.76146 -25.1821 -0.0 0.0 0.0 -0.0 0.0 0.0 1.13272e-13 5.40692e-14 -7.62339e-14 84.3392 5.49724 -6.51039 -10.011 -4.14808 17.8221 -1.03028 27.5387 4.2025 -3.50497e-12 4.75935e-10 -1.28612e-09 -3.48867e-11 8.49008e-10 -2.21956e-09 -3.49782e-12 4.75931e-10 -1.28613e-09 7.73091 5.47488 0.417314 -3.50761e-12 4.7593e-10 -1.28611e-09 2.90554 0.965183 0.102902 -3.49916e-12 4.75929e-10 -1.28612e-09 10.2786 0.731801 0.0259123 -3.51491e-12 4.75931e-10 -1.2861e-09 2.22167 -0.733487 -0.20892 1.13201e-13 5.40698e-14 -7.66315e-14 -83.3532 -19.0289 9.0055 6.20356 -2.1352 -10.8503 6.87112 57.1612 -12.5771 -7.63576e-10 -8.23058e-10 -9.25382e-10 -1.35479e-09 -1.43829e-09 -1.5546e-09 -7.63581e-10 -8.23052e-10 -9.25373e-10 -7.73091 5.47488 -0.417314 -7.6357e-10 -8.23057e-10 -9.25386e-10 -2.90554 0.965183 -0.102902 -7.63583e-10 -8.23057e-10 -9.25379e-10 -10.2786 0.731801 -0.0259123 -7.6357e-10 -8.23058e-10 -9.25386e-10 -2.22167 -0.733487 0.20892 -2.03217e-16 0.0 -3.88251e-19 3.2688 -4.84221 25.5684 0.0453372 -1.30616 0.358611 -5.3247 -6.13707 -24.0487 2.03217e-16 0.0 3.88251e-19 -0.482562 -4.95067 -50.1999 0.0508659 12.3384 0.324294 20.7846 -17.0412 59.7184
3.43284 82.0873 53.0334 -8.3078 0.4631 10.9416 3.81979 -15.0533 1.54929 -2.13128 -9.36967 -0.158928 -10.4511 15.5584 -14.7181 20.8482 -8.15916 -27.096 -0.0 0.0 0.0 -0.0 0.0 0.0 1.77137e-13 8.77926e-14 -9.90511e-14 90.3283 5.55851 -6.94584 -10.5408 -4.36099 18.9336 -1.30805 29.7836 4.64144 6.00612e-11 8.89849e-10 -2.31422e-09 5.10919e-11 1.58636e-09 -3.99627e-09 6.00693e-11 8.89846e-10 -2.31422e-09 7.73091 5.47488 0.417314 6.00585e-11 8.89844e-10 -2.31421e-09 2.90554 0.965183 0.102902 6.00662e-11 8.89842e-10 -2.31421e-09 10.2786 0.731801 0.0259123 6.00521e-11 8.89844e-10 -2.3142e-09 2.22167 -0.733487 -0.20892 1.77077e-13 8.77918e-14 -9.94013e-14 -88.987 -19.66 9.5956 6.64088 -2.29432 -11.6716 9.07554 60.6555 -14.881 -1.51216e-09 -1.4716e-09 -1.44205e-09 -2.66509e-09 -2.55901e-09 -2.4104e-09 -1.51216e-09 -1.47159e-09 -1.44204e-09 -7.73091 5.47488 -0.417314 -1.51215e-09 -1.4716e-09 -1.44205e-09 -2.90554 0.965183 -0.102902 -1.51216e-09 -1.4716e-09 -1.44205e-09 -10.2786 0.731801 -0.0259123 -1.51215e-09 -1.4716e-09 -1.44205e-09 -2.22167 -0.733487 0.20892 -2.03217e-16 0.0 -3.88251e-19 3.51016 -5.14126 27.4972 0.0486571 -1.25964 0.389715 -5.99481 -6.70609 -25.8785 2.03217e-16 0.0 3.88251e-19 -0.247561 -4.57772 -53.8389 0.0601192 12.2488 0.38338 23.4088 -16.2202 63.9761
3.53998 82.1123 52.9674 -7.7696 0.3077 11.2566 3.14813 -15.175 1.71159 -2.07578 -9.24038 -0.0839177 -10.0743 15.4315 -14.6735 20.4374 -8.07875 -27.0573 -0.0 0.0 0.0 -0.0 0.0 0.0 2.62927e-13 1.31379e-13 -1.24393e-13 89.6826 5.04796 -6.85594 -10.3594 -4.26336 18.5743 -1.32501 30.0427 4.6878 1.83258e-10 1.45234e-09 -3.68384e-09 2.32002e-10 2.58786e-09 -6.36333e-09 1.83267e-10 1.45234e-09 -3.68385e-09 7.73091 5.47488 0.417314 1.83256e-10 1.45233e-09 -3.68383e-09 2.90554 0.965183 0.102902 1.83262e-10 1.45233e-09 -3.68384e-09 10.2786 0.731801 0.0259123 1.8325e-10 1.45233e-09 -3.68382e-09 2.22167 -0.733487 -0.20892 2.62857e-13 1.31376e-13 -1.24678e-13 -88.3739 -18.5316 9.34183 6.64236 -2.30044 -11.6707 8.50344 59.7108 -14.2581 -2.48441e-09 -2.33356e-09 -2.10623e-09 -4.36631e-09 -4.04715e-09 -3.50885e-09 -2.48442e-09 -2.33355e-09 -2.10622e-09 -7.73091 5.47488 -0.417314 -2.48441e-09 -2.33355e-09 -2.10624e-09 -2.90554 0.965183 -0.102902 -2.48442e-09 -2.33355e-09 -2.10623e-09 -10.2786 0.731801 -0.0259123 -2.48441e-09 -2.33355e-09 -2.10624e-09 -2.22167 -0.733487 0.20892 -2.03217e-16 0.0 -3.88251e-19 3.0211 -5.36027 27.4825 0.0483084 -1.27662 0.388408 -5.92942 -6.60298 -25.8255 2.03217e-16 0.0 3.88251e-19 -0.787675 -4.8546 -53.6205 0.062761 12.3883 0.391759 23.5151 -16.4838 63.737
3.59463 82.1206 52.9316 -7.4942 0.2287 11.4256 2.24791 -14.8851 1.82024 -2.00115 -8.8192 -0.0120406 -9.50146 14.8713 -14.1702 19.5228 -7.8084 -26.2146 -0.0 0.0 0.0 -0.0 0.0 0.0 3.386e-13 1.71695e-13 -1.4408e-13 86.385 4.37274 -6.55972 -9.91134 -4.05282 17.6692 -1.21988 29.407 4.55275 3.64475e-10 1.936e-09 -4.94942e-09 5.15657e-10 3.45141e-09 -8.55194e-09 3.64484e-10 1.936e-09 -4.94944e-09 7.73091 5.47488 0.417314 3.64472e-10 1.936e-09 -4.94942e-09 2.90554 0.965183 0.102902 3.64477e-10 1.93599e-09 -4.94942e-09 10.2786 0.731801 0.0259123 3.64468e-10 1.936e-09 -4.94941e-09 2.22167 -0.733487 -0.20892 3.38512e-13 1.71691e-13 -1.44307e-13 -85.2314 -16.8309 8.78607 6.46278 -2.24201 -11.3277 6.98689 57.0536 -12.6311 -3.42354e-09 -3.13452e-09 -2.66372e-09 -6.0057e-09 -5.42685e-09 -4.42499e-09 -3.42355e-09 -3.13452e-09 -2.66371e-09 -7.73091 5.47488 -0.417314 -3.42354e-09 -3.13452e-09 -2.66373e-09 -2.90554 0.965183 -0.102902 -3.42355e-09 -3.13452e-09 -2.66372e-09 -10.2786 0.731801 -0.0259123 -3.42354e-09 -3.13452e-09 -2.66373e-09 -2.22167 -0.733487 0.20892 -2.03217e-16 0.0 -3.88251e-19 2.31824 -5.52434 26.6573 0.0463861 -1.32078 0.373435 -5.56643 -6.23444 -25.0035 2.03217e-16 0.0 3.88251e-19 -1.52639 -5.3928 -51.8424 0.0620606 12.5964 0.37782 22.5411 -17.1969 61.6738
3.58058 82.1217 52.923 -7.5571 0.2268 11.4628 1.74936 -14.7888 1.88826 -1.97205 -8.52103 0.0296211 -9.12878 14.5163 -13.873 18.9526 -7.62976 -25.7173 -0.0 0.0 0.0 -0.0 0.0 0.0 3.72115e-13 1.95606e-13 -1.49933e-13 84.408 3.94126 -6.37376 -9.64763 -3.92993 17.1423 -1.153 28.9657 4.46173 6.02098e-10 2.11343e-09 -5.66541e-09 9.09868e-10 3.77491e-09 -9.79329e-09 6.02108e-10 2.11343e-09 -5.66543e-09 7.73091 5.47488 0.417314 6.02096e-10 2.11343e-09 -5.66541e-09 2.90554 0.965183 0.102902 6.02101e-10 2.11342e-09 -5.66541e-09 10.2786 0.731801 0.0259123 6.02093e-10 2.11343e-09 -5.6654e-09 2.22167 -0.733487 -0.20892 3.72011e-13 1.95601e-13 -1.50132e-13 -83.3247 -15.7523 8.44227 6.35503 -2.20691 -11.1225 6.19619 55.4246 -11.7658 -4.07274e-09 -3.60007e-09 -2.86032e-09 -7.13052e-09 -6.22222e-09 -4.73387e-09 -4.07274e-09 -3.60007e-09 -2.86031e-09 -7.73091 5.47488 -0.417314 -4.07273e-09 -3.60007e-09 -2.86033e-09 -2.90554 0.965183 -0.102902 -4.07274e-09 -3.60007e-09 -2.86032e-09 -10.2786 0.731801 -0.0259123 -4.07273e-09 -3.60007e-09 -2.86033e-09 -2.22167 -0.733487 0.20892 -2.03217e-16 0.0 -3.88251e-19 1.93953 -5.64529 26.157 0.0449837 -1.35579 0.363536 -5.35117 -6.00132 -24.5266 2.03217e-16 0.0 3.88251e-19 -1.91365 -5.75476 -50.7954 0.0612296 12.7126 0.369956 21.9486 -17.5948 60.4238
